<svg width="20" height="17" viewBox="0 0 20 17" fill="none" xmlns="http://www.w3.org/2000/svg">
<path d="M18.4256 5.1225L1.92 0.0600004C1.6966 -0.00515846 1.4611 -0.0174453 1.23213 0.0241113C1.00316 0.065668 0.787004 0.159928 0.600749 0.299438C0.414495 0.438947 0.263253 0.619878 0.158987 0.827922C0.0547215 1.03597 0.000290834 1.26542 0 1.49813V14.9981C0 15.396 0.158035 15.7775 0.43934 16.0588C0.720644 16.3401 1.10218 16.4981 1.5 16.4981C1.64344 16.4982 1.78614 16.4777 1.92375 16.4372L9.75 14.0353V14.9981C9.75 15.396 9.90804 15.7775 10.1893 16.0588C10.4706 16.3401 10.8522 16.4981 11.25 16.4981H14.25C14.6478 16.4981 15.0294 16.3401 15.3107 16.0588C15.592 15.7775 15.75 15.396 15.75 14.9981V12.195L18.4256 11.3747C18.7353 11.2816 19.0069 11.0916 19.2003 10.8325C19.3937 10.5734 19.4988 10.259 19.5 9.93563V6.56063C19.4986 6.23745 19.3934 5.92326 19.2 5.66435C19.0066 5.40544 18.7351 5.2155 18.4256 5.1225ZM9.75 12.4669L1.5 14.9981V1.49813L9.75 4.02938V12.4669ZM14.25 14.9981H11.25V13.575L14.25 12.6544V14.9981ZM18 9.93563H17.9897L11.25 12.0056V4.49063L17.9897 6.55313H18V9.92813V9.93563Z" fill="black"/>
</svg>
